<svg width="779" height="615" viewBox="0 0 779 615" fill="none" xmlns="http://www.w3.org/2000/svg">
<path d="M675.57 323.675C735.898 301.822 779 243.993 779 176.094C779 89.4298 708.784 19.175 622.169 19.175C578.536 19.175 539.061 37.0062 510.635 65.7843C484.879 26.1837 440.244 3.21865e-06 389.502 3.21865e-06C338.756 3.21865e-06 294.126 26.1837 268.366 65.7843C239.939 37.0062 200.464 19.175 156.831 19.175C70.2152 19.175 0 89.4298 0 176.094C0 246.091 45.8079 305.389 109.071 325.603C65.339 353.445 36.324 402.37 36.324 458.08C36.324 544.745 106.539 615 193.155 615C231.38 615 266.413 601.319 293.625 578.573C319.127 601.231 352.703 615 389.502 615C428.368 615 463.644 599.639 489.605 574.66C517.401 599.737 554.211 615 594.585 615C681.2 615 751.416 544.745 751.416 458.08C751.416 401.067 721.027 351.155 675.57 323.675Z" fill="#BABABA" style="fill:#BABABA;fill:color(display-p3 0.7294 0.7294 0.7294);fill-opacity:1;"/>
</svg>
