<svg width="1024" height="1024" viewBox="0 0 1024 1024" fill="none" xmlns="http://www.w3.org/2000/svg">
<rect width="1024" height="1024" rx="228" fill="#650093" style="fill:#650093;fill:color(display-p3 0.3949 0.0000 0.5779);fill-opacity:1;"/>
<path d="M838 512.5C838 692.821 692.045 839 512 839C331.955 839 186 692.821 186 512.5C186 332.179 331.955 186 512 186C692.045 186 838 332.179 838 512.5Z" fill="#FFCA28" style="fill:#FFCA28;fill:color(display-p3 1.0000 0.7922 0.1569);fill-opacity:1;"/>
<path d="M760 512.5C760 649.743 648.967 761 512 761C375.033 761 264 649.743 264 512.5C264 375.257 375.033 264 512 264C648.967 264 760 375.257 760 512.5Z" fill="#00CFFF" style="fill:#00CFFF;fill:color(display-p3 0.0000 0.8118 1.0000);fill-opacity:1;"/>
<path d="M658 512.5C658 593.41 592.634 659 512 659C431.366 659 366 593.41 366 512.5C366 431.59 431.366 366 512 366C592.634 366 658 431.59 658 512.5Z" fill="#FF3CAC" style="fill:#FF3CAC;fill:color(display-p3 1.0000 0.2353 0.6745);fill-opacity:1;"/>
</svg>
